HIERARCHY
ROOT Hips
{
 OFFSET 0.000000 0.000000 0.000000
 CHANNELS 6 Xposition Yposition Zposition Yrotation Xrotation Zrotation
 JOINT Chest
 {
  OFFSET 0.000000 9.585900 0.002600
  CHANNELS 3 Yrotation Xrotation Zrotation
  JOINT Chest2
  {
   OFFSET 0.000000 9.601200 -0.005300
   CHANNELS 3 Yrotation Xrotation Zrotation
   JOINT Chest3
   {
    OFFSET 0.000000 9.561800 0.000000
    CHANNELS 3 Yrotation Xrotation Zrotation
    JOINT Chest4
    {
     OFFSET 0.000000 9.552100 0.000000
     CHANNELS 3 Yrotation Xrotation Zrotation
     JOINT Neck
     {
      OFFSET 0.000000 14.453000 0.000000
      CHANNELS 3 Yrotation Xrotation Zrotation
      JOINT Head
      {
       OFFSET 0.000000 8.936500 -0.011300
       CHANNELS 3 Yrotation Xrotation Zrotation
       End Site
       {
        OFFSET 0.000000 17.073600 -0.006000
       }
      }
     }
     JOINT RightCollar
     {
      OFFSET -2.921100 9.558500 0.000000
      CHANNELS 3 Yrotation Xrotation Zrotation
      JOINT RightShoulder
      {
       OFFSET -13.519700 0.000000 0.000000
       CHANNELS 3 Yrotation Xrotation Zrotation
       JOINT RightElbow
       {
        OFFSET 0.000000 -29.696600 0.000000
        CHANNELS 3 Yrotation Xrotation Zrotation
        JOINT RightWrist
        {
         OFFSET 0.000000 -24.004700 0.000000
         CHANNELS 3 Yrotation Xrotation Zrotation
         End Site
         {
          OFFSET 0.000000 -17.728500 0.000000
         }
        }
       }
      }
     }
     JOINT LeftCollar
     {
      OFFSET 2.921100 9.558500 0.000000
      CHANNELS 3 Yrotation Xrotation Zrotation
      JOINT LeftShoulder
      {
       OFFSET 13.519700 0.000000 0.000000
       CHANNELS 3 Yrotation Xrotation Zrotation
       JOINT LeftElbow
       {
        OFFSET 0.000000 -29.696600 0.000000
        CHANNELS 3 Yrotation Xrotation Zrotation
        JOINT LeftWrist
        {
         OFFSET 0.000000 -24.004700 0.000000
         CHANNELS 3 Yrotation Xrotation Zrotation
         End Site
         {
          OFFSET 0.000000 -17.728500 0.000000
         }
        }
       }
      }
     }
    }
   }
  }
 }
 JOINT RightHip
 {
  OFFSET -7.771700 -0.012900 -0.001300
  CHANNELS 3 Yrotation Xrotation Zrotation
  JOINT RightKnee
  {
   OFFSET 0.000000 -40.869800 0.001200
   CHANNELS 3 Yrotation Xrotation Zrotation
   JOINT RightAnkle
   {
    OFFSET 0.000000 -39.717900 0.002100
    CHANNELS 3 Yrotation Xrotation Zrotation
    JOINT RightToe
    {
     OFFSET 0.000000 -4.965400 11.033500
     CHANNELS 3 Yrotation Xrotation Zrotation
     End Site
     {
      OFFSET 0.000000 -1.423100 5.872300
     }
    }
   }
  }
 }
 JOINT LeftHip
 {
  OFFSET 7.771700 -0.012900 -0.001300
  CHANNELS 3 Yrotation Xrotation Zrotation
  JOINT LeftKnee
  {
   OFFSET 0.000000 -40.869800 0.001200
   CHANNELS 3 Yrotation Xrotation Zrotation
   JOINT LeftAnkle
   {
    OFFSET 0.000000 -39.717900 0.002100
    CHANNELS 3 Yrotation Xrotation Zrotation
    JOINT LeftToe
    {
     OFFSET 0.000000 -4.965400 11.033500
     CHANNELS 3 Yrotation Xrotation Zrotation
     End Site
     {
      OFFSET 0.000000 -1.423100 5.872300
     }
    }
   }
  }
 }
}
MOTION
Frames: 5
Frame Time: 0.008333
-8.216837 52.884289 15.857312 -179.907887 -14.997833 -2.472114 0.948885 15.716816 0.991910 0.090081 1.530294 0.099316 0.152726 2.566606 0.167988 0.943885 14.030178 1.020453 0.028863 15.937559 1.274526 -0.257633 -9.005464 1.323551 1.870417 -1.419997 2.824613 2.039669 -7.681306 -7.248243 -94.573195 -80.629462 125.008250 -5.243455 -27.905266 -17.688129 -6.255963 -2.690827 0.887566 2.057124 -5.901243 10.713439 88.817315 -65.842019 -127.822270 -1.813234 -9.617880 8.934901 3.952273 -63.720458 10.959156 168.874153 85.779309 168.167340 -12.245677 -23.400509 10.999342 0.021342 0.002991 -0.198849 3.515209 -62.002339 -1.894283 123.170079 77.784511 121.940432 -5.173092 -20.406652 -1.709364 0.015076 0.136027 0.016871
-8.215676 52.883955 15.856877 -179.910316 -15.002107 -2.465656 0.942997 15.698627 0.986149 0.089629 1.527325 0.098554 0.155356 2.576819 0.168598 0.935472 14.003373 1.011541 0.026253 15.940272 1.252901 -0.254647 -8.982065 1.324145 1.874642 -1.387553 2.827561 2.038220 -7.676747 -7.244866 -94.559739 -80.600229 124.959249 -5.280343 -27.968309 -17.704681 -6.244752 -2.657271 0.888367 2.076687 -5.882184 10.713256 88.805634 -65.826440 -127.826349 -1.742162 -9.643134 8.976436 3.943373 -63.709583 10.940967 168.564971 85.770997 167.830452 -12.136619 -23.418929 11.060146 0.028535 -0.003261 -0.221109 3.521740 -61.999143 -1.898052 123.173437 77.784718 121.939367 -5.174028 -20.404596 -1.709609 0.017715 0.134946 0.016475
-8.214492 52.883694 15.856387 -179.912249 -15.006799 -2.458816 0.939452 15.692280 0.977531 0.089405 1.525810 0.098339 0.156194 2.574139 0.167463 0.932682 13.997597 1.010423 0.029911 15.950781 1.248811 -0.254157 -8.991192 1.306628 1.873310 -1.387236 2.828369 2.019059 -7.676311 -7.240821 -94.506905 -80.544442 124.868168 -5.305347 -27.986160 -17.700365 -6.245093 -2.647526 0.892174 2.102085 -5.854581 10.708435 88.808992 -65.813876 -127.846880 -1.744533 -9.646804 8.977421 3.923915 -63.701826 10.971773 168.789760 85.775721 168.059833 -12.270315 -23.412595 11.154931 0.023785 0.000139 -0.229689 3.529743 -61.995057 -1.905038 123.174656 77.785838 121.937660 -5.173189 -20.403028 -1.709669 0.013535 0.135106 0.014642
-8.212950 52.883331 15.856359 -179.916369 -15.008672 -2.453456 0.937554 15.682734 0.970031 0.091952 1.530840 0.099417 0.153037 2.565782 0.167498 0.929149 13.991002 1.005893 0.036340 15.961219 1.246457 -0.253002 -9.004016 1.290575 1.869557 -1.384498 2.828012 1.999806 -7.678950 -7.225230 -94.444891 -80.506370 124.793479 -5.320266 -27.998950 -17.717974 -6.241138 -2.639325 0.902507 2.154418 -5.818315 10.708142 88.770347 -65.763287 -127.856839 -1.722446 -9.653697 8.993625 3.898131 -63.695274 10.987643 168.788139 85.774632 168.037285 -12.223064 -23.415605 11.221207 0.026339 -0.007940 -0.243037 3.539255 -61.993602 -1.911170 123.171962 77.788122 121.933287 -5.169414 -20.401982 -1.709831 0.006666 0.136604 0.011993
-8.210524 52.883123 15.855538 -179.917350 -15.014873 -2.454511 0.934196 15.677528 0.968027 0.095269 1.535630 0.100326 0.146234 2.548921 0.163940 0.929749 13.993447 1.004634 0.039123 15.959101 1.236908 -0.247801 -9.005631 1.279410 1.855961 -1.382507 2.826239 1.988558 -7.683225 -7.205502 -94.347047 -80.478737 124.690458 -5.335909 -28.018645 -17.738308 -6.230743 -2.630127 0.914094 2.174207 -5.801678 10.702736 88.608299 -65.689637 -127.723865 -1.647515 -9.682387 9.017641 3.867604 -63.680220 10.972667 168.376157 85.763174 167.573806 -11.930738 -23.438458 11.247774 0.039326 -0.025944 -0.259315 3.534629 -61.988135 -1.903948 123.174308 77.790043 121.934297 -5.167487 -20.404253 -1.708810 0.000017 0.139729 0.006894
